<svg xmlns="http://www.w3.org/2000/svg" viewBox="0 0 265.09 149.44"><defs><style>.cls-1,.cls-3{fill:#fff;}.cls-2{fill:#dedede;}.cls-3{font-size:9.2px;font-family:ProximaNova-Semibold, Proxima Nova;font-weight:700;letter-spacing:-0.01em;}.cls-4{letter-spacing:-0.02em;}.cls-5{letter-spacing:-0.01em;}.cls-6{letter-spacing:-0.05em;}.cls-7{letter-spacing:-0.08em;}.cls-8{letter-spacing:-0.02em;}.cls-9{letter-spacing:-0.03em;}</style></defs><title>footer_logo</title><g id="Layer_2" data-name="Layer 2"><g id="homepage"><path class="cls-1" d="M15.75,98.46H12.5L0,129H14.13c.08-.79-.07-1.59,0-2.38H3.89L14.1,101.25,25.23,129h3Z"/><path class="cls-1" d="M36.27,117.28V98.46h2.66v18.78c0,6.18,3.25,9.94,9.25,9.94s9.25-3.76,9.25-9.94V98.46h2.66v18.82c0,7.56-4,12.27-11.91,12.27S36.27,124.79,36.27,117.28Z"/><path class="cls-1" d="M72.27,129V98.46H82c9.48,0,15.43,6.92,15.43,15.3S91.5,129,82,129Zm22.44-15.25c0-7.14-4.58-12.91-12.69-12.91H74.88v25.78H82C90.08,126.62,94.71,120.9,94.71,113.75Z"/><path class="cls-1" d="M108.54,129V98.46h2.61V129Z"/><path class="cls-1" d="M131.12,129V100.84h-10V98.46h22.62v2.38h-10V129Z"/><path class="cls-1" d="M177.14,129l-7.33-26.24L162.49,129h-2.93l-8.75-30.55h2.93l7.37,26.88,7.51-26.88H171l7.46,26.88,7.37-26.88h2.93L180.08,129Z"/><path class="cls-1" d="M198,129V98.46h2.61V129Z"/><path class="cls-1" d="M211.13,124.7l1.69-2a12.45,12.45,0,0,0,9.53,4.44c6.27,0,8.06-3.48,8.06-6.09,0-4.3-4.08-5.5-8.38-6.64-4.81-1.33-9.94-2.7-9.94-8.33,0-5,4.49-8.15,10-8.15,4.58,0,8,1.6,10.35,4.31l-1.74,1.92a10.94,10.94,0,0,0-8.75-3.85c-4.08,0-7.14,2.34-7.14,5.63,0,3.62,3.8,4.67,8,5.77,4.95,1.42,10.35,3,10.35,9.16,0,3.94-2.61,8.66-10.85,8.66A14,14,0,0,1,211.13,124.7Z"/><path class="cls-1" d="M244,129V98.46h19.37v2.38H246.62v11.31h16.44v2.38H246.62v12.09h16.76V129Z"/><polygon class="cls-1" points="132.23 88.85 114.6 88.85 70.52 0.7 88.15 0.7 132.23 88.85"/><polygon class="cls-1" points="114.6 88.85 132.23 88.85 176.3 0.7 158.67 0.7 114.6 88.85"/><polygon class="cls-1" points="220.38 88.85 202.75 88.85 158.67 0.7 176.3 0.7 220.38 88.85"/><polygon class="cls-1" points="52.89 0 35.26 0 0 70.87 8.81 88.33 52.89 0"/><polygon class="cls-1" points="96.97 88.85 79.33 88.85 35.26 0.7 52.89 0.7 96.97 88.85"/><polygon class="cls-1" points="202.75 88.85 220.38 88.85 264.45 0.7 246.82 0.7 202.75 88.85"/><polygon class="cls-1" points="0 71.22 8.81 88.85 44.08 88.85 44.08 71.22 0 71.22"/><polygon class="cls-2" points="17.63 71 21.16 71 8.81 88.63 17.63 71"/><polygon class="cls-2" points="35.26 0.7 44.08 18.33 42.37 21.74 35.26 0.7"/><polygon class="cls-2" points="123.41 71.22 132.23 88.85 125.53 66.99 123.41 71.22"/><polygon class="cls-2" points="158.67 0.7 167.49 18.33 165.5 22.3 158.67 0.7"/><polygon class="cls-2" points="211.56 71.22 220.38 88.85 213.68 66.99 211.56 71.22"/><text class="cls-3" transform="translate(0.11 146.86)">CHA<tspan class="cls-4" x="18.81" y="0">R</tspan><tspan class="cls-5" x="24.39" y="0">TERED CE</tspan><tspan class="cls-4" x="65.75" y="0">R</tspan><tspan class="cls-5" x="71.33" y="0">TIFIED </tspan><tspan class="cls-6" x="100.06" y="0">A</tspan><tspan x="105.83" y="0">CCOUN</tspan><tspan class="cls-7" x="138.14" y="0">T</tspan><tspan x="142.75" y="0">AN</tspan><tspan class="cls-8" x="155.35" y="0">T</tspan><tspan class="cls-5" x="160.51" y="0">S &amp; BUSINESS A</tspan><tspan class="cls-9" x="227.03" y="0">D</tspan><tspan class="cls-5" x="233.28" y="0">VISORS</tspan></text></g></g></svg>