<svg xmlns="http://www.w3.org/2000/svg" viewBox="0 0 41 27.77"><defs><style>.cls-1{fill:#fff;}</style></defs><title>g+_footer</title><g id="Layer_2" data-name="Layer 2"><g id="homepage"><path class="cls-1" d="M17.74,16.75h6.78a8.62,8.62,0,1,1-2.34-9.24.93.93,0,0,0,1.27,0l2.49-2.34a.93.93,0,0,0,0-1.35A13.83,13.83,0,0,0,16.68,0,13.88,13.88,0,1,0,30.26,14.66c0-.09,0-3.19,0-3.19h-13a.51.51,0,0,0-.51.51v3.83a.93.93,0,0,0,.93.93ZM0,16.75"/><path class="cls-1" d="M38.21,11.78V9.25A.27.27,0,0,0,37.94,9H35.48a.27.27,0,0,0-.27.27v2.53H32.69a.27.27,0,0,0-.27.27V14.5a.27.27,0,0,0,.27.27h2.53V17.3a.27.27,0,0,0,.27.27h2.46a.27.27,0,0,0,.27-.27V14.77h2.53A.27.27,0,0,0,41,14.5V12a.27.27,0,0,0-.27-.27Zm0,0"/></g></g></svg>