<svg xmlns="http://www.w3.org/2000/svg" viewBox="0 0 32.97 22.33"><defs><style>.cls-1{fill:#a19181;}</style></defs><title>g+_top</title><g id="Layer_2" data-name="Layer 2"><g id="homepage"><path class="cls-1" d="M14.27,13.47h5.45A6.93,6.93,0,1,1,17.84,6a.75.75,0,0,0,1,0l2-1.88a.75.75,0,0,0,0-1.09A11.12,11.12,0,0,0,13.41,0,11.16,11.16,0,1,0,24.34,11.79c0-.07,0-2.56,0-2.56H13.93a.41.41,0,0,0-.41.41v3.08a.75.75,0,0,0,.75.75ZM0,13.47"/><path class="cls-1" d="M30.73,9.47v-2a.21.21,0,0,0-.21-.21h-2a.21.21,0,0,0-.21.21v2h-2a.21.21,0,0,0-.21.21v2a.21.21,0,0,0,.21.21h2v2a.21.21,0,0,0,.21.21h2a.21.21,0,0,0,.21-.21v-2h2a.21.21,0,0,0,.21-.21v-2a.21.21,0,0,0-.21-.21Zm0,0"/></g></g></svg>