<svg xmlns="http://www.w3.org/2000/svg" viewBox="0 0 276 120.77"><defs><style>.cls-1{fill:#e6e6e6;}.cls-2{fill:#a19181;}.cls-3{fill:#d83734;}.cls-4{fill:#807266;}.cls-5{fill:#b82e2c;}</style></defs><title>main_logo</title><g id="Layer_2" data-name="Layer 2"><g id="homepage"><polygon class="cls-1" points="87.06 54.34 14.75 72.66 11.99 76.11 11.09 77.26 41.99 77.26 52.93 72.68 33.08 72.67 30.02 72.67 82.62 59.71 85.72 58.94 72.9 77.26 88.35 77.26 101.6 54.38 87.06 54.34"/><polygon class="cls-1" points="261.47 54.92 202.01 71.7 202.01 71.7 200.4 72.13 197.98 72.78 203.33 54.73 188.8 54.68 125.89 71.64 125.89 71.64 124.19 72.08 121.64 72.73 130.66 54.48 116.13 54.43 103.81 77.26 119.26 77.26 186.06 59.92 188.74 59.21 181.07 77.26 196.52 77.26 276 54.97 261.47 54.92"/><path class="cls-2" d="M14.07,93h-2.9L0,120.28H12.61c.07-.71-.06-1.42,0-2.13H3.47L12.59,95.5l9.94,24.78h2.7Z"/><path class="cls-2" d="M32.38,109.81V93h2.37v16.76c0,5.52,2.9,8.87,8.26,8.87s8.26-3.35,8.26-8.87V93h2.37v16.8c0,6.75-3.6,11-10.63,11S32.38,116.52,32.38,109.81Z"/><path class="cls-2" d="M64.52,120.28V93h8.71C81.7,93,87,99.18,87,106.67s-5.32,13.62-13.78,13.62Zm20-13.62c0-6.38-4.09-11.53-11.33-11.53H66.85v23h6.38C80.43,118.16,84.56,113,84.56,106.67Z"/><path class="cls-2" d="M96.91,120.28V93h2.33v27.27Z"/><path class="cls-2" d="M117.07,120.28V95.14h-8.91V93h20.2v2.13h-8.91v25.15Z"/><path class="cls-2" d="M158.16,120.28l-6.54-23.43-6.54,23.43h-2.62L134.65,93h2.62l6.58,24,6.71-24h2.13l6.66,24,6.58-24h2.62l-7.77,27.27Z"/><path class="cls-2" d="M176.81,120.28V93h2.33v27.27Z"/><path class="cls-2" d="M188.5,116.44l1.51-1.76a11.11,11.11,0,0,0,8.5,4c5.6,0,7.2-3.11,7.2-5.44,0-3.84-3.64-4.91-7.48-5.93-4.29-1.19-8.87-2.41-8.87-7.44,0-4.46,4-7.28,9-7.28a11.71,11.71,0,0,1,9.24,3.84L206,98.12a9.77,9.77,0,0,0-7.81-3.43c-3.64,0-6.38,2.09-6.38,5,0,3.23,3.39,4.17,7.11,5.15,4.42,1.27,9.24,2.66,9.24,8.18,0,3.52-2.33,7.73-9.69,7.73A12.54,12.54,0,0,1,188.5,116.44Z"/><path class="cls-2" d="M217.86,120.28V93h17.3v2.13h-15v10.1h14.68v2.13H220.19v10.79h15v2.13Z"/><polygon class="cls-3" points="119.26 77.26 103.81 77.26 65.17 0 80.63 0 119.26 77.26"/><polygon class="cls-3" points="103.81 77.26 119.26 77.26 157.89 0 142.44 0 103.81 77.26"/><polygon class="cls-3" points="196.52 77.26 181.07 77.26 142.44 0 157.89 0 196.52 77.26"/><polygon class="cls-2" points="49.72 1.15 34.27 1.15 3.36 62.39 11.09 78.13 49.72 1.15"/><polygon class="cls-2" points="88.35 77.26 72.9 77.26 34.27 0 49.72 0 88.35 77.26"/><polygon class="cls-3" points="181.07 77.26 196.52 77.26 235.16 0 219.7 0 181.07 77.26"/><polygon class="cls-2" points="3.36 61.81 11.09 77.26 41.99 77.26 41.99 61.81 3.36 61.81"/><polygon class="cls-4" points="18.82 62.15 21.91 62.15 11.09 77.61 18.82 62.15"/><polygon class="cls-4" points="34.27 0 41.99 15.45 40.5 18.44 34.27 0"/><polygon class="cls-5" points="111.53 61.81 119.26 77.26 113.39 58.1 111.53 61.81"/><polygon class="cls-5" points="142.44 0 150.16 15.45 148.43 18.93 142.44 0"/><polygon class="cls-5" points="188.8 61.81 196.52 77.26 190.65 58.1 188.8 61.81"/></g></g></svg>