<svg xmlns="http://www.w3.org/2000/svg" viewBox="0 0 26.83 21.81"><defs><style>.cls-1{fill:#adadad;}</style></defs><title>menu_twitter</title><g id="Layer_2" data-name="Layer 2"><g id="menu"><path class="cls-1" d="M26.83,2.58a11,11,0,0,1-3.16.87,5.52,5.52,0,0,0,2.42-3,11,11,0,0,1-3.5,1.34,5.51,5.51,0,0,0-9.38,5A15.63,15.63,0,0,1,1.87,1a5.51,5.51,0,0,0,1.7,7.35,5.48,5.48,0,0,1-2.49-.69s0,0,0,.07a5.51,5.51,0,0,0,4.42,5.4A5.52,5.52,0,0,1,3,13.23a5.51,5.51,0,0,0,5.14,3.82,11,11,0,0,1-6.84,2.36A11.24,11.24,0,0,1,0,19.33a15.58,15.58,0,0,0,8.44,2.47A15.56,15.56,0,0,0,24.1,6.14q0-.36,0-.71A11.18,11.18,0,0,0,26.83,2.58Z"/></g></g></svg>