<svg xmlns="http://www.w3.org/2000/svg" viewBox="0 0 30.95 22.33"><defs><style>.cls-1{fill:#adadad;}</style></defs><title>menu_g+</title><g id="Layer_2" data-name="Layer 2"><g id="menu"><path class="cls-1" d="M12.24,13.47H17.7A6.93,6.93,0,1,1,15.81,6a.75.75,0,0,0,1,0l2-1.88a.75.75,0,0,0,0-1.09A11.12,11.12,0,0,0,11.39,0,11.16,11.16,0,1,0,22.31,11.79c0-.07,0-2.56,0-2.56H11.91a.41.41,0,0,0-.41.41v3.08a.75.75,0,0,0,.75.75Z"/><path class="cls-1" d="M28.7,9.47v-2a.21.21,0,0,0-.21-.21h-2a.21.21,0,0,0-.21.21v2h-2a.21.21,0,0,0-.21.21v2a.21.21,0,0,0,.21.21h2v2a.21.21,0,0,0,.21.21h2a.21.21,0,0,0,.21-.21v-2h2a.21.21,0,0,0,.21-.21v-2a.21.21,0,0,0-.21-.21Z"/></g></g></svg>